[img]http://img402.imageshack.us/img402/7425/postervi.jpg[/img]
[code]

Harry Potter and the Deathly Hallows Part 1 PPVRiP XViD - IMAGiNE
********************************************************************************************************************

Ripper ...........: IMAGiNE                                        IMDB Rating.......:8.2/10                             
Video Codec.......: XVID                                         Release Date......:03/03/11
Audio Codec.......:MP3                                           Theatre Date......:19/11/10
Audio Bitrate.....:128                                              Runtime.......:2hr 08mins
Subtitles.........:NIL                                                 Language..........:ENGLISH
Resolution...... 720 x 304                                      IMDb URL..........:http://www.imdb.com/title/tt0926084/

[color=yellow]DETAILS:[/color]

Video
ID                               : 0
Format                           : MPEG-4 Visual
Format profile                   : Advanced Simple@L5
Format settings, BVOP            : 2
Format settings, QPel            : No
Format settings, GMC             : No warppoints
Format settings, Matrix          : Default (MPEG)
Muxing mode                      : Packed bitstream
Codec ID                         : XVID
Codec ID/Hint                    : XviD
Duration                         : 2h 8mn
Bit rate                         : 1 395 Kbps
Width                            : 720 pixels
Height                           : 304 pixels
Display aspect ratio             : 2.35:1
Frame rate                       : 25.000 fps
Color space                      : YUV
Chroma subsampling               : 4:2:0
Bit depth                        : 8 bits
Scan type                        : Progressive
Compression mode                 : Lossy
Bits/(Pixel*Frame)               : 0.255
Stream size                      : 1.25 GiB (91%)
Writing library                  : XviD 61

Audio
ID                               : 1
Format                           : MPEG Audio
Format version                   : Version 1
Format profile                   : Layer 3
Codec ID                         : 55
Codec ID/Hint                    : MP3
Duration                         : 2h 8mn
Bit rate mode                    : Constant
Bit rate                         : 128 Kbps
Channel(s)                       : 2 channels
Sampling rate                    : 48.0 KHz
Compression mode                 : Lossy
Stream size                      : 117 MiB (8%)
Alignment                        : Split accross interleaves
Interleave, duration             : 40 ms (1.00 video frame)
Interleave, preload duration     : 500 ms


[color=yellow]SOURCES:[/color]

VIDEO:Harry.Potter PPVRIP......Thanks
AUDIO:Harry.Potter PPVRIP......Thanks
Plot:As Harry races against time and evil to destroy the Horcruxes, he uncovers the existence of three most powerful objects in the wizarding world: the Deathly Hallows.
[color=yellow]NOTES:[/color]

IMAGiNE bringing you another release..........Harry Potter And The Deathly Hallows Part 1

Here we are with another Harry Potter,this time its a ppvrip.
Source had black borders and colours seemed off alot,very green looking.
Audio was ok but nothing special for what it is....
Crop,resize,filtered colours,added sharpness and brightness.....and also re-encoded the audio.

Enjoy folks 

[/code]
Screens:
[img]http://img638.imageshack.us/img638/2457/64316922.png[/img]
[img]http://img140.imageshack.us/img140/5720/59388104.png[/img]
[img]http://img26.imageshack.us/img26/4189/40142937.png[/img]